<svg width="14" height="13" viewBox="0 0 14 13" fill="none" xmlns="http://www.w3.org/2000/svg">
<path d="M6.64131 0.726795C6.78803 0.429497 7.21197 0.429496 7.35869 0.726794L8.96418 3.97986C9.02244 4.09792 9.13507 4.17975 9.26536 4.19868L12.8553 4.72033C13.1834 4.76801 13.3144 5.1712 13.077 5.40261L10.4793 7.93477C10.385 8.02667 10.342 8.15907 10.3642 8.28883L10.9775 11.8643C11.0335 12.1911 10.6906 12.4402 10.3971 12.286L7.18614 10.5979C7.06961 10.5366 6.93039 10.5366 6.81386 10.5979L3.60289 12.286C3.30944 12.4402 2.96647 12.1911 3.02251 11.8643L3.63575 8.28883C3.65801 8.15907 3.61499 8.02667 3.52071 7.93477L0.922985 5.40261C0.685578 5.1712 0.816581 4.76801 1.14467 4.72033L4.73464 4.19868C4.86493 4.17975 4.97756 4.09792 5.03582 3.97986L6.64131 0.726795Z" fill="#828282"/>
</svg>
